<?xml version="1.0" encoding="UTF-8"?>
<svg id="Layer_1" data-name="Layer 1" xmlns="http://www.w3.org/2000/svg" viewBox="0 0 16 16">
  <defs>
    <style>
      .cls-1 {
        fill: #fd0;
      }

      .cls-1, .cls-2, .cls-3 {
        stroke-width: 0px;
      }

      .cls-2 {
        fill: #034ea2;
      }

      .cls-3 {
        fill: #02ae5a;
      }
    </style>
  </defs>
  <g>
    <path class="cls-1" d="M4.12,6.18c-.05.11-.09.21-.13.32l-3.51-.94c.13-.42.3-.82.5-1.2l3.14,1.82Z"/>
    <path class="cls-1" d="M6.54,12.03l-.94,3.51c-.42-.13-.82-.3-1.2-.5l1.82-3.15c.11.05.21.09.32.13Z"/>
    <path class="cls-1" d="M6.54,3.95c-.11.04-.22.09-.32.13l-1.82-3.15c.38-.2.78-.36,1.2-.5l.94,3.51Z"/>
    <path class="cls-1" d="M4.12,9.8l-3.15,1.82c-.2-.38-.36-.78-.5-1.2l3.51-.94c.04.11.09.22.13.32Z"/>
    <path class="cls-1" d="M5.55,11.51l-1.82,3.15c-.37-.24-.71-.5-1.03-.79l2.57-2.57c.09.08.18.15.28.21Z"/>
    <path class="cls-1" d="M3.79,8.72l-3.51.94c-.09-.42-.15-.85-.17-1.29h3.63c.01.12.02.23.04.35Z"/>
    <path class="cls-1" d="M5.55,4.47c-.1.07-.19.14-.28.21l-2.57-2.57c.32-.29.66-.56,1.03-.79l1.82,3.15Z"/>
    <path class="cls-1" d="M4.72,10.74l-2.57,2.57c-.29-.32-.56-.66-.79-1.03l3.15-1.82c.07.1.14.19.21.28Z"/>
    <path class="cls-1" d="M4.72,5.24c-.07.09-.15.18-.21.28l-3.15-1.82c.24-.37.5-.71.79-1.03l2.57,2.57Z"/>
    <path class="cls-1" d="M3.79,7.25c-.02.11-.03.23-.04.35H.11c.02-.44.08-.87.17-1.29l3.51.94Z"/>
    <path class="cls-1" d="M7.64.08v3.63c-.12.01-.23.03-.35.05L6.35.24c.24-.05.47-.09.72-.12.19-.02.38-.04.57-.05Z"/>
  </g>
  <path class="cls-2" d="M15.09,8.49l.8.46c-.03.24-.07.48-.12.72-.05.25-.12.5-.2.75-.07.23-.16.46-.25.68h-.93l-.05.09-.39.67-.05.09.46.8c-.15.19-.3.38-.46.56-.17.19-.36.37-.55.55-.18.16-.37.32-.56.46l-.8-.46-.09.05-.67.39-.09.05v.93c-.22.09-.45.18-.68.25l-.94-3.51c1.64-.6,2.82-2.18,2.82-4.04,0-2.24-1.72-4.09-3.91-4.28V.08c.19,0,.38.03.57.05.24.03.48.07.72.12.25.05.5.12.75.2.23.07.46.16.68.25v.93l.09.05.67.39.09.05.8-.46c.19.15.38.3.56.46.19.17.37.36.55.55.16.18.32.37.46.56l-.46.8.05.09.39.67.05.09h.93c.09.22.18.45.25.68.08.24.15.49.2.75.05.24.09.47.12.72l-.8.46v.99Z"/>
  <g>
    <path class="cls-3" d="M11.46,7.99c0,1.45-.9,2.69-2.17,3.19-.24.09-.49.16-.75.2-.17.02-.34.04-.51.04s-.34-.01-.51-.04c-.26-.04-.51-.11-.75-.2-1.27-.5-2.18-1.74-2.18-3.19s.9-2.69,2.18-3.19c.24-.09.49-.16.75-.2.17-.02.34-.04.51-.04s.34.01.51.04c.26.04.51.11.75.2,1.27.5,2.17,1.74,2.17,3.19Z"/>
    <path class="cls-3" d="M9.7,15.75c-.54.12-1.1.18-1.68.18s-1.14-.06-1.68-.18l1.17-4.36c.17.02.34.04.51.04s.34-.01.51-.04l1.17,4.36Z"/>
  </g>
</svg>