<?xml version="1.0" encoding="UTF-8"?>
<svg id="Layer_1" data-name="Layer 1" xmlns="http://www.w3.org/2000/svg" viewBox="0 0 250 150">
  <defs>
    <style>
      .cls-1 {
        fill: #fd0;
      }

      .cls-1, .cls-2, .cls-3 {
        stroke-width: 0px;
      }

      .cls-2 {
        fill: #034ea2;
      }

      .cls-3 {
        fill: #02ae5a;
      }
    </style>
  </defs>
  <g>
    <path class="cls-1" d="M27.52,59.66l-18.09-10.44c3.74-5.88,8.75-10.87,14.65-14.59l10.44,18.08c-2.75,1.85-5.13,4.22-7,6.95Z"/>
    <path class="cls-1" d="M23.01,72.46H2.13c.3-7.2,2.22-13.98,5.4-19.99l18.08,10.44c-1.43,2.92-2.34,6.14-2.6,9.55Z"/>
    <path class="cls-1" d="M25.51,85.84l-18.09,10.44c-3.16-6.03-5.04-12.83-5.31-20.05h20.87c.22,3.42,1.11,6.67,2.52,9.61Z"/>
    <path class="cls-1" d="M34.41,96.18l-10.44,18.09c-5.91-3.75-10.93-8.79-14.66-14.71l18.08-10.44c1.87,2.78,4.25,5.18,7.02,7.07Z"/>
    <path class="cls-1" d="M47.3,100.67v20.88c-7.23-.28-14.04-2.2-20.08-5.38l10.44-18.08c2.94,1.44,6.2,2.35,9.63,2.59Z"/>
    <path class="cls-1" d="M47.3,27.41v20.88c-3.39.24-6.6,1.12-9.52,2.53l-10.44-18.09c6.01-3.15,12.78-5.04,19.96-5.32Z"/>
    <path class="cls-2" d="M96.3,74.48c0,.59-.01,1.17-.03,1.75-.09,2.54-.39,5.04-.87,7.47l-8.52,1.27-2.87,7.29-.34.86,4.86,6.11h0l.42.53c-2.89,4.54-6.54,8.54-10.76,11.85l-7.16-4.39-.51.28-3.32,1.8-3.87,2.1-.21,8.09c-3.82,1.18-7.86,1.89-12.03,2.05v-20.88c3.44-.24,6.69-1.15,9.63-2.59,1.14-.56,2.23-1.19,3.26-1.9,2.76-1.88,5.15-4.29,7.02-7.07.7-1.04,1.33-2.14,1.88-3.28,1.41-2.94,2.29-6.18,2.52-9.6.04-.58.06-1.17.06-1.75,0-.68-.03-1.35-.08-2.02-.26-3.41-1.17-6.63-2.6-9.55-.56-1.14-1.19-2.22-1.9-3.26-1.87-2.73-4.25-5.1-7-6.95-1.04-.7-2.13-1.33-3.27-1.88-2.91-1.41-6.13-2.29-9.52-2.53v-20.88c5.15.2,10.09,1.23,14.68,2.96l-.21,7.89,1.69,1.04,3.22,1.97,2.56,1.57,7.13-3.87c3.4,2.97,6.37,6.41,8.81,10.24.47.73.91,1.47,1.33,2.23l-2.46,2.78-3.11,3.52,2.78,8.31,8.33,1.7c.22,1.55.37,3.12.44,4.72.03.67.04,1.34.04,2.02Z"/>
    <path class="cls-3" d="M71.07,74.24c0,9.6-6.21,17.74-14.84,20.64l-4.58-12.71c3.42-1.01,5.92-4.18,5.92-7.93,0-4.57-3.7-8.27-8.27-8.27s-8.26,3.7-8.26,8.27c0,3.75,2.5,6.91,5.92,7.93l-4.58,12.71c-8.62-2.9-14.84-11.04-14.84-20.64,0-12.02,9.75-21.77,21.77-21.77s21.77,9.75,21.77,21.77Z"/>
  </g>
  <g>
    <path class="cls-2" d="M106.18,71.4V28.43h31.37v9.21h-21.67v7h11.91v9.21h-11.91v8.29h22.9v9.27h-32.59Z"/>
    <path class="cls-2" d="M156.76,72.14c-3.03,0-5.65-.67-7.86-2-2.21-1.33-3.92-3.22-5.13-5.68s-1.81-5.36-1.81-8.72.61-6.24,1.83-8.7c1.22-2.47,2.94-4.37,5.16-5.72,2.22-1.35,4.82-2.03,7.81-2.03,3.6,0,6.57.84,8.92,2.52,2.34,1.68,4.04,4.17,5.08,7.49l-8.78,2.88c-.49-1.29-1.18-2.29-2.06-2.99-.88-.71-1.89-1.06-3.04-1.06-1.62,0-2.95.72-4.01,2.15-1.05,1.43-1.58,3.25-1.58,5.46s.51,4.02,1.53,5.43c1.02,1.41,2.33,2.12,3.93,2.12,1.23,0,2.28-.37,3.16-1.12.88-.75,1.56-1.87,2.06-3.36l8.78,2.52c-1.04,3.62-2.73,6.33-5.06,8.12-2.33,1.79-5.31,2.69-8.93,2.69Z"/>
    <path class="cls-2" d="M190.89,72.14c-4.5,0-8.05-1.46-10.65-4.37s-3.9-6.92-3.9-12.02c0-3.36.59-6.27,1.78-8.73,1.19-2.47,2.87-4.37,5.05-5.71,2.18-1.34,4.75-2.01,7.72-2.01s5.5.67,7.66,2.01c2.16,1.34,3.83,3.24,5,5.69,1.18,2.46,1.76,5.37,1.76,8.75s-.58,6.32-1.73,8.76-2.81,4.33-4.97,5.65c-2.16,1.32-4.73,1.98-7.72,1.98ZM190.89,63.24c1.7,0,3-.65,3.91-1.95.91-1.3,1.37-3.15,1.37-5.54s-.47-4.25-1.4-5.57c-.93-1.32-2.23-1.98-3.88-1.98s-2.96.68-3.91,2.03c-.95,1.35-1.43,3.19-1.43,5.52s.48,4.16,1.43,5.49c.95,1.33,2.26,2,3.91,2Z"/>
    <path class="cls-2" d="M213.35,57.71v-8.78h16.88v8.78h-16.88Z"/>
    <path class="cls-2" d="M106.18,121.85v-42.97h9.7v33.58h20.56v9.39h-30.26Z"/>
    <path class="cls-2" d="M146.02,87.72c-1.43,0-2.67-.52-3.71-1.56s-1.56-2.28-1.56-3.71.51-2.62,1.53-3.64c1.02-1.01,2.27-1.52,3.74-1.52s2.77.5,3.78,1.49c1,.99,1.5,2.21,1.5,3.67s-.51,2.72-1.53,3.74-2.27,1.53-3.75,1.53ZM141.41,121.85v-31.37h9.21v31.37h-9.21Z"/>
    <path class="cls-2" d="M174.68,122.59c-1.35,0-2.47-.25-3.35-.74s-1.63-1.29-2.24-2.39v2.39h-9.21v-40.21l9.21-4.11v15.22c.68-.98,1.53-1.73,2.56-2.24,1.03-.51,2.23-.77,3.58-.77,2.54,0,4.78.7,6.74,2.1,1.95,1.4,3.49,3.34,4.6,5.8,1.12,2.47,1.67,5.29,1.67,8.49,0,5.16-1.2,9.19-3.61,12.09-2.4,2.91-5.72,4.36-9.96,4.36ZM173.64,113.69c1.72,0,3.05-.65,3.99-1.96.94-1.31,1.41-3.17,1.41-5.59s-.47-4.24-1.41-5.54c-.94-1.3-2.27-1.95-3.99-1.95-.98,0-1.87.16-2.65.48-.79.32-1.42.77-1.89,1.37v11.42c.53.63,1.13,1.09,1.8,1.37.66.28,1.58.41,2.75.41Z"/>
    <path class="cls-2" d="M195.15,121.85v-31.37h9.21v2.89c.47-.96,1.31-1.81,2.52-2.53,1.21-.73,2.37-1.09,3.5-1.09,2.43,0,4.48.92,6.14,2.76l-1.23,8.35c-.94-.84-1.84-1.43-2.69-1.76s-1.8-.51-2.84-.51c-1.17,0-2.15.25-2.95.74-.8.49-1.41,1.22-1.83,2.18-.42.96-.63,2.14-.63,3.53v16.82h-9.21Z"/>
    <path class="cls-2" d="M233.7,122.59c-3.11,0-5.79-.66-8.03-1.96-2.24-1.31-3.96-3.19-5.16-5.65-1.2-2.46-1.8-5.4-1.8-8.84s.61-6.23,1.83-8.69,2.95-4.35,5.19-5.69c2.24-1.34,4.89-2.01,7.96-2.01,2.66,0,5.06.54,7.2,1.61,2.14,1.07,3.84,2.71,5.09,4.91,1.26,2.2,1.89,4.98,1.89,8.33,0,.57,0,1.28-.03,2.13-.02.85-.09,1.69-.21,2.53h-19.95c0,1.13.25,2.1.74,2.93.49.83,1.19,1.47,2.09,1.92.9.45,1.96.68,3.19.68,1.6,0,2.93-.26,4.01-.77,1.07-.51,2.11-1.36,3.12-2.55l5.28,5.28c-1.47,1.78-3.22,3.2-5.25,4.25-2.03,1.05-4.41,1.58-7.15,1.58ZM227.81,102.39h11.3c-.16-1.08-.48-1.98-.95-2.7s-1.09-1.25-1.87-1.61c-.78-.36-1.72-.54-2.82-.54-1.49,0-2.75.43-3.77,1.29-1.02.86-1.65,2.05-1.87,3.56Z"/>
  </g>
</svg>