<?xml version="1.0" encoding="UTF-8"?>
<svg id="Layer_1" data-name="Layer 1" xmlns="http://www.w3.org/2000/svg" version="1.1" viewBox="0 0 250 150">
  <defs>
    <style>
      .cls-1 {
        fill: #2e5f3e;
      }

      .cls-1, .cls-2 {
        stroke-width: 0px;
      }

      .cls-2 {
        fill: #eaad38;
      }
    </style>
  </defs>
  <g>
    <g>
      <path class="cls-1" d="M52.49,124.77c-.46,0-.92,0-1.37-.02-1.88-.05-3.73-.2-5.56-.44l-1.9-10.37c-2.97-.65-5.82-1.61-8.5-2.86l-8.3,6.87h0c-4.45-2.57-8.47-5.78-11.91-9.52l5.35-9.14c-1.82-2.33-3.38-4.85-4.64-7.55l-10.87.03c-1.71-4.71-2.71-9.75-2.89-15h24.46c.01.24.03.48.06.71,1.17,12.61,11.64,22.59,24.63,23.28.48.02.96.04,1.44.04.67,0,1.33-.02,1.98-.07,12.95-.95,23.28-11.15,24.14-23.88l2.11-.08h22.36c-.15,4.73-.98,9.28-2.4,13.59l-10.75.03c-1.16,2.74-2.63,5.32-4.36,7.71l5.46,9.21c-3.33,3.84-7.25,7.17-11.62,9.86l-8.25-6.75c-2.64,1.34-5.45,2.41-8.39,3.17l-1.85,10.5c-2.09.34-4.21.56-6.38.65-.68.03-1.37.04-2.05.04Z"/>
      <path class="cls-1" d="M51.03,97.06c-10.86-.68-19.61-8.94-20.83-19.44-.04-.29-.06-.57-.08-.86h3.04c.03.33.06.65.11.98,1.24,8.8,8.61,15.67,17.75,16.34v2.93s0,.05,0,.05Z"/>
      <path class="cls-1" d="M54.46,97.02v-2.98c9.11-.9,16.37-8,17.32-16.94.01-.11.02-.23.03-.34h3.04c0,.08-.01.15-.02.23-.91,10.63-9.54,19.11-20.37,20.03Z"/>
    </g>
    <g>
      <path class="cls-2" d="M46.77,35.55l-2.14-9.69c2.09-.33,4.22-.53,6.38-.6.55-.02,1.11-.03,1.66-.03.59,0,1.18.01,1.76.03,2.04.06,4.04.25,6.01.55l-2.14,9.69-3.06,13.82-.08.36c-.88-.09-1.78-.13-2.69-.13s-1.74.04-2.59.12l-.07-.32-3.05-13.81Z"/>
      <path class="cls-2" d="M33.33,39.94l-5.39-8.39c4.56-2.51,9.57-4.35,14.87-5.38l1.37,9.83,1.95,14.01.04.29c-1.75.43-3.43,1.03-5.02,1.78l-.13-.2-7.68-11.95Z"/>
      <path class="cls-2" d="M60.92,35.95l1.37-9.82c5.29.99,10.28,2.79,14.85,5.27l-5.39,8.38-7.69,11.96-.22.34c-1.56-.74-3.2-1.33-4.91-1.75l.05-.38,1.95-14Z"/>
      <path class="cls-2" d="M74.03,41.09l4.71-8.77c4.53,2.68,8.61,6.03,12.07,9.92l-7.99,6.07-11.4,8.66-.32.25c-1.21-1.21-2.54-2.3-3.98-3.26l.19-.36,6.72-12.5Z"/>
      <path class="cls-2" d="M22.25,48.61l-7.99-6.07c3.45-3.95,7.53-7.35,12.08-10.07l4.71,8.77,6.72,12.52.09.17c-1.49.99-2.88,2.13-4.13,3.4l-.1-.08-11.38-8.65Z"/>
      <path class="cls-2" d="M84.54,50.3l7.48-6.66c3.29,3.98,5.97,8.46,7.88,13.32l-9.63,3.03-13.73,4.31-.35.11c-.73-1.54-1.6-3-2.62-4.35l.29-.26,10.67-9.5Z"/>
      <path class="cls-2" d="M14.88,60.48l-9.62-3.03c1.88-4.92,4.54-9.48,7.83-13.52l7.49,6.66,10.68,9.51.06.05c-1.06,1.44-1.98,2.99-2.71,4.62h0s-13.71-4.31-13.71-4.31Z"/>
      <path class="cls-2" d="M103.27,73.17h-24.75c-.14-1.81-.48-3.57-.98-5.26l.31-.12,13.34-5.35,9.36-3.75c1.6,4.56,2.55,9.42,2.72,14.48Z"/>
      <path class="cls-2" d="M27.33,68.26c-.45,1.58-.75,3.22-.88,4.91H2.09c.17-4.88,1.06-9.58,2.56-14l9.36,3.75,13.33,5.34Z"/>
      <path class="cls-2" d="M71.78,73.03c.01.11.02.23.03.34h3.04c0-.08-.01-.15-.02-.23-.91-10.63-9.54-19.11-20.37-20.03v.05s0,2.93,0,2.93c9.12.9,16.38,8,17.33,16.94Z"/>
      <path class="cls-2" d="M51.03,53.08c-10.86.68-19.61,8.94-20.83,19.44-.04.29-.06.57-.08.86h3.04c.03-.33.06-.65.11-.98,1.24-8.8,8.61-15.67,17.75-16.34v-2.93s0-.05,0-.05Z"/>
    </g>
  </g>
  <g>
    <path class="cls-1" d="M148.48,56.53c-.04.89-.38,1.65-1.03,2.27-.65.62-1.43.95-2.34.98h-23.4c.14.41.33.84.58,1.29.18.34.35.67.53.98.17.31.35.62.53.93-.18-.27-.33-.54-.47-.8-.14-.26-.28-.52-.42-.8.56,1,1.28,1.89,2.16,2.68.88.79,1.86,1.41,2.94,1.86,1.16.48,2.44.76,3.84.82h.21c.91,0,1.67.3,2.29.9.61.6.92,1.35.92,2.24s-.31,1.65-.92,2.27c-.61.62-1.38.93-2.29.93h-.6c-.19,0-.38-.02-.55-.05-1.47-.1-2.91-.39-4.31-.88-1.4-.48-2.71-1.11-3.92-1.88-1.21-.77-2.31-1.69-3.29-2.76-.98-1.07-1.81-2.25-2.47-3.56-1.3-2.58-1.88-5.3-1.76-8.17.12-2.87.95-5.53,2.5-7.97.14-.21.29-.42.45-.64.16-.22.32-.44.5-.64,1.3-1.72,2.87-3.12,4.73-4.2,1.86-1.08,3.84-1.81,5.94-2.19,2.7-.41,5.36-.21,7.99.62,2.63.82,4.89,2.2,6.78,4.12,1.54,1.55,2.74,3.3,3.6,5.26.86,1.96,1.29,4.02,1.29,6.19v.21ZM126.03,47.86c-1.02.65-1.89,1.45-2.63,2.4-.74.95-1.3,1.97-1.68,3.07h19.77c-.18-.52-.42-1.07-.74-1.65-.67-1.24-1.57-2.29-2.71-3.17-1.14-.88-2.41-1.5-3.81-1.88-1.37-.38-2.77-.46-4.21-.23-1.44.22-2.77.71-4,1.47Z"/>
    <path class="cls-1" d="M174.34,67.64c.63.64.95,1.4.95,2.29s-.32,1.65-.95,2.27c-.63.62-1.4.93-2.31.93h-3.89c-2.31,0-4.5-.44-6.55-1.31s-3.84-2.06-5.38-3.56c-1.54-1.5-2.75-3.25-3.65-5.26-.9-2.01-1.35-4.17-1.35-6.47s.45-4.41,1.35-6.42c.9-2.01,2.12-3.76,3.65-5.26,1.53-1.5,3.33-2.68,5.38-3.56s4.23-1.31,6.55-1.31h3.89c.91,0,1.68.31,2.31.93.63.62.95,1.38.95,2.27s-.32,1.66-.95,2.29c-.63.64-1.4.95-2.31.95h-3.89c-1.44,0-2.78.27-4.02.8-1.24.53-2.34,1.26-3.29,2.17-.95.91-1.69,1.99-2.23,3.22-.54,1.24-.82,2.54-.82,3.92s.27,2.73.82,3.97c.54,1.24,1.29,2.31,2.23,3.22.95.91,2.04,1.63,3.29,2.17,1.24.53,2.58.8,4.02.8h3.89c.91,0,1.68.32,2.31.95Z"/>
    <path class="cls-1" d="M191.27,40.18c2.7-.45,5.35-.26,7.97.57,2.61.82,4.88,2.2,6.81,4.12,1.58,1.55,2.79,3.34,3.65,5.39.86,2.05,1.27,4.17,1.24,6.37,0,1.75-.29,3.46-.87,5.13-.58,1.67-1.39,3.21-2.44,4.61-1.72,2.27-3.89,4-6.52,5.18-2.63,1.19-5.36,1.69-8.2,1.52-1.47-.1-2.91-.39-4.31-.88-1.4-.48-2.71-1.12-3.92-1.91-1.21-.79-2.31-1.72-3.29-2.78-.98-1.07-1.81-2.25-2.47-3.56-.63-1.27-1.1-2.59-1.39-3.97-.3-1.37-.41-2.76-.34-4.15.07-1.39.31-2.77.71-4.12.4-1.36.99-2.64,1.76-3.84.24-.45.54-.89.89-1.34h.05c1.3-1.72,2.87-3.11,4.73-4.18,1.86-1.07,3.84-1.79,5.94-2.17ZM202.63,62.3c.74-1.07,1.25-2.22,1.55-3.45.3-1.24.36-2.49.18-3.76-.21-1.27-.6-2.39-1.16-3.35-.7-1.24-1.61-2.3-2.73-3.2-1.12-.89-2.38-1.51-3.79-1.86-1.37-.38-2.77-.46-4.21-.26-1.44.21-2.77.69-4,1.44-1.58,1-2.8,2.32-3.68,3.97-.88,1.65-1.26,3.4-1.16,5.26.07,1.44.44,2.78,1.1,4.02.17.31.34.63.5.95.16.33.34.64.55.95-.32-.52-.61-1.05-.89-1.6.56,1,1.28,1.88,2.16,2.66.88.77,1.86,1.4,2.94,1.88,1.12.48,2.3.75,3.52.8,1.23.05,2.42-.11,3.58-.49,1.12-.34,2.16-.86,3.1-1.55.95-.69,1.75-1.5,2.42-2.42Z"/>
    <path class="cls-1" d="M219.26,56.22h7.81c1.87,0,3.38,1.51,3.38,3.38h0c0,1.87-1.51,3.38-3.38,3.38h-7.81c-1.87,0-3.38-1.51-3.38-3.38h0c0-1.87,1.51-3.38,3.38-3.38Z"/>
    <path class="cls-1" d="M135.28,113.38c0,.86-.31,1.59-.92,2.19-.61.6-1.36.94-2.23,1.01h-.47c-2.28-.07-4.42-.55-6.41-1.44-2-.89-3.74-2.09-5.22-3.58s-2.66-3.23-3.52-5.21c-.87-1.98-1.3-4.1-1.3-6.37v-13.41c0-.89.32-1.65.95-2.27s1.41-.93,2.33-.93,1.7.31,2.36.93.98,1.38.98,2.27l-.05,13.41c0,1.38.26,2.66.79,3.87.53,1.2,1.24,2.26,2.13,3.17.89.91,1.95,1.65,3.15,2.22,1.21.57,2.5.87,3.86.9h.26c.91,0,1.69.32,2.34.95.65.64.97,1.4.97,2.29Z"/>
    <path class="cls-1" d="M142.27,81.72c-.91,0-1.68-.31-2.31-.95-.63-.63-.95-1.39-.95-2.28s.32-1.64.95-2.28c.63-.63,1.4-.95,2.31-.95s1.69.32,2.34.95c.65.63.97,1.39.97,2.28s-.32,1.65-.97,2.28c-.65.63-1.43.95-2.34.95ZM142.27,85.59c.91,0,1.69.32,2.34.95.65.64.97,1.4.97,2.29v24.39c0,.89-.32,1.66-.97,2.29-.65.64-1.43.95-2.34.95s-1.68-.32-2.31-.95c-.63-.64-.95-1.4-.95-2.29v-24.39c0-.89.32-1.66.95-2.29.63-.64,1.4-.95,2.31-.95Z"/>
    <path class="cls-1" d="M188.43,99.62c.03,1.41-.11,2.78-.45,4.12s-.82,2.62-1.45,3.84c-.63,1.22-1.41,2.35-2.34,3.4-.93,1.05-1.99,1.97-3.19,2.76-2.49,1.65-5.23,2.59-8.22,2.81-2.98.22-5.83-.28-8.53-1.52-1.3-.62-2.5-1.38-3.61-2.29-1.11-.91-2.07-1.93-2.9-3.07-.82-1.13-1.51-2.36-2.05-3.69-.54-1.32-.89-2.69-1.03-4.1-.04-.27-.06-.54-.08-.8-.02-.26-.03-.52-.03-.8v-21.81c0-.89.32-1.65.95-2.27s1.41-.93,2.33-.93,1.7.31,2.33.93.95,1.38.95,2.27v8.51-.05c1.79-1.31,3.76-2.26,5.91-2.86,2.16-.6,4.35-.76,6.6-.49,2.21.28,4.29.95,6.26,2.04,1.96,1.08,3.63,2.5,4.99,4.25,1.09,1.41,1.93,2.95,2.52,4.61.6,1.67.93,3.38,1,5.13ZM180.02,105.85c1.4-1.92,2.01-4.09,1.84-6.5-.07-1.27-.39-2.48-.94-3.64-.56-1.15-1.29-2.17-2.2-3.07-.46-.41-.94-.77-1.44-1.08-.51-.31-1.04-.6-1.6-.88-1.33-.58-2.71-.88-4.15-.88s-2.82.28-4.15.82c-1.33.58-2.49,1.39-3.47,2.42-.98,1.03-1.72,2.2-2.21,3.51-.63,1.75-.76,3.54-.39,5.36.37,1.82,1.16,3.44,2.39,4.85.95,1.1,2.07,1.93,3.36,2.47.32.17.64.33.97.46.33.14.67.28,1.03.41-.28-.1-.56-.21-.84-.34-.28-.12-.56-.25-.84-.39,2.2.96,4.48,1.12,6.83.46,1.19-.31,2.28-.81,3.28-1.5,1-.69,1.85-1.53,2.55-2.53Z"/>
    <path class="cls-1" d="M210.7,84.38c.61.6.92,1.33.92,2.19s-.32,1.66-.97,2.29c-.65.64-1.43.95-2.34.95h-.26c-1.37.07-2.66.38-3.86.93-1.21.55-2.26,1.28-3.15,2.19-.89.91-1.6,1.97-2.1,3.17-.51,1.2-.76,2.49-.76,3.87v13.41c0,.89-.32,1.65-.97,2.27-.65.62-1.43.93-2.34.93s-1.68-.31-2.31-.93c-.63-.62-.95-1.37-.95-2.27v-13.41c0-2.27.43-4.39,1.29-6.37.86-1.98,2.02-3.71,3.5-5.21,1.47-1.5,3.21-2.69,5.21-3.58,2-.89,4.14-1.37,6.41-1.44h.47c.88.07,1.62.4,2.23,1.01Z"/>
    <path class="cls-1" d="M248.11,100.03c-.04.89-.38,1.65-1.03,2.27-.65.62-1.43.95-2.34.98h-23.4c.14.41.33.84.58,1.29.18.34.35.67.53.98.17.31.35.62.53.93-.18-.27-.33-.54-.47-.8-.14-.26-.28-.52-.42-.8.56,1,1.28,1.89,2.16,2.68.88.79,1.86,1.41,2.94,1.86,1.16.48,2.44.76,3.84.82h.21c.91,0,1.67.3,2.29.9.61.6.92,1.35.92,2.24s-.31,1.65-.92,2.27c-.61.62-1.38.93-2.29.93h-.6c-.19,0-.38-.02-.55-.05-1.47-.1-2.91-.39-4.31-.88-1.4-.48-2.71-1.11-3.92-1.88-1.21-.77-2.31-1.69-3.29-2.76-.98-1.07-1.81-2.25-2.47-3.56-1.3-2.58-1.88-5.3-1.76-8.17.12-2.87.95-5.53,2.5-7.97.14-.21.29-.42.45-.64.16-.22.32-.44.5-.64,1.3-1.72,2.87-3.12,4.73-4.2,1.86-1.08,3.84-1.81,5.94-2.19,2.7-.41,5.36-.21,7.99.62,2.63.82,4.89,2.2,6.78,4.12,1.54,1.55,2.74,3.3,3.6,5.26.86,1.96,1.29,4.02,1.29,6.19v.21ZM225.66,91.37c-1.02.65-1.89,1.45-2.63,2.4-.74.95-1.3,1.97-1.68,3.07h19.77c-.18-.52-.42-1.07-.74-1.65-.67-1.24-1.57-2.29-2.71-3.17-1.14-.88-2.41-1.5-3.81-1.88-1.37-.38-2.77-.46-4.21-.23-1.44.22-2.77.71-4,1.47Z"/>
  </g>
</svg>