<?xml version="1.0" encoding="UTF-8"?>
<svg id="Layer_1" data-name="Layer 1" xmlns="http://www.w3.org/2000/svg" viewBox="0 0 250 150">
  <defs>
    <style>
      .cls-1 {
        fill: #fd0;
      }

      .cls-1, .cls-2, .cls-3 {
        stroke-width: 0px;
      }

      .cls-2 {
        fill: #034ea2;
      }

      .cls-3 {
        fill: #02ae5a;
      }
    </style>
  </defs>
  <g>
    <g>
      <path class="cls-1" d="M25.15,63.13c-.29.63-.56,1.27-.8,1.92l-20.76-5.57c.79-2.46,1.78-4.84,2.95-7.11l18.62,10.75Z"/>
      <path class="cls-1" d="M39.48,97.72l-5.57,20.77c-2.46-.79-4.84-1.78-7.1-2.95l10.75-18.62c.63.3,1.27.56,1.92.8Z"/>
      <path class="cls-1" d="M39.48,49.93c-.65.24-1.29.5-1.92.8l-10.75-18.62c2.26-1.17,4.64-2.16,7.1-2.95l5.57,20.77Z"/>
      <path class="cls-1" d="M25.16,84.52l-18.62,10.75c-1.17-2.27-2.16-4.64-2.95-7.11l20.77-5.56c.24.65.51,1.3.8,1.92Z"/>
      <path class="cls-1" d="M33.6,94.63l-10.75,18.62c-2.16-1.4-4.2-2.96-6.1-4.68l15.2-15.2c.53.45,1.08.87,1.65,1.27Z"/>
      <path class="cls-1" d="M23.17,78.18l-20.77,5.56c-.53-2.47-.87-5.02-1-7.62h21.5c.06.69.15,1.38.27,2.06Z"/>
      <path class="cls-1" d="M33.6,53.02c-.57.4-1.12.82-1.65,1.27l-15.2-15.2c1.9-1.72,3.94-3.29,6.1-4.68l10.75,18.62Z"/>
      <path class="cls-1" d="M28.71,90.13l-15.2,15.2c-1.72-1.9-3.29-3.94-4.68-6.1l18.62-10.75c.4.57.82,1.12,1.26,1.65Z"/>
      <path class="cls-1" d="M28.71,57.52c-.44.53-.87,1.08-1.26,1.65l-18.62-10.75c1.4-2.16,2.96-4.2,4.68-6.1l15.2,15.2Z"/>
      <path class="cls-1" d="M23.17,69.47c-.11.68-.2,1.37-.27,2.06H1.41c.13-2.6.46-5.15,1-7.63l20.77,5.56Z"/>
      <path class="cls-1" d="M45.97,26.98v21.5c-.7.06-1.39.15-2.06.27l-5.57-20.77c1.39-.3,2.81-.54,4.24-.71,1.12-.13,2.24-.23,3.39-.29Z"/>
    </g>
    <path class="cls-2" d="M90.06,76.76l4.74,2.74c-.17,1.43-.41,2.85-.71,4.24-.32,1.5-.72,2.98-1.18,4.43-.44,1.37-.94,2.71-1.5,4.03h-5.49l-.33.56-2.29,3.96-.32.56,2.74,4.74c-.87,1.15-1.78,2.25-2.74,3.31-1.03,1.13-2.11,2.21-3.23,3.24-1.06.96-2.17,1.88-3.31,2.74l-4.74-2.74-.56.32-3.97,2.29-.56.33v5.49c-1.31.56-2.65,1.06-4.02,1.5l-5.56-20.77c9.73-3.57,16.67-12.92,16.67-23.89,0-13.28-10.18-24.19-23.16-25.34v-21.5c1.14.06,2.27.15,3.39.29,1.44.17,2.85.41,4.24.71,1.5.32,2.98.72,4.42,1.18,1.37.44,2.71.94,4.02,1.5v5.49l.56.33,3.97,2.29.56.32,4.74-2.74c1.14.86,2.25,1.78,3.31,2.74,1.13,1.03,2.21,2.1,3.24,3.23.96,1.06,1.88,2.17,2.74,3.32l-2.74,4.74.32.56,2.29,3.96.33.56h5.49c.56,1.31,1.06,2.65,1.5,4.03.46,1.45.86,2.92,1.18,4.42.3,1.39.54,2.81.71,4.24l-4.74,2.74v5.87Z"/>
    <g>
      <path class="cls-3" d="M68.56,73.83c0,8.59-5.33,15.93-12.87,18.9-1.4.55-2.89.96-4.42,1.18-.99.15-1.99.22-3.02.22s-2.03-.08-3.01-.22c-1.54-.23-3.02-.63-4.42-1.18-7.54-2.97-12.87-10.31-12.87-18.91s5.33-15.94,12.87-18.91c1.41-.55,2.89-.95,4.42-1.18.98-.14,1.99-.22,3.01-.22s2.03.08,3.02.22c1.54.22,3.02.63,4.42,1.18,7.54,2.97,12.87,10.31,12.87,18.9Z"/>
      <path class="cls-3" d="M58.19,119.73c-3.2.69-6.53,1.05-9.95,1.05s-6.72-.36-9.92-1.05l6.92-25.82c.98.14,1.99.22,3.01.22s2.03-.08,3.02-.22l6.92,25.82Z"/>
    </g>
  </g>
  <g>
    <path class="cls-2" d="M106.07,71.54V28.32h31.55v9.26h-21.79v7.04h11.98v9.26h-11.98v8.33h23.03v9.32h-32.78Z"/>
    <path class="cls-2" d="M156.94,72.28c-3.05,0-5.68-.67-7.9-2.01-2.22-1.34-3.94-3.24-5.16-5.71s-1.82-5.39-1.82-8.77.61-6.27,1.84-8.75c1.22-2.48,2.95-4.4,5.19-5.76,2.23-1.36,4.85-2.04,7.86-2.04,3.62,0,6.61.84,8.97,2.53,2.36,1.69,4.06,4.2,5.11,7.53l-8.83,2.9c-.49-1.3-1.18-2.3-2.07-3.01s-1.9-1.06-3.06-1.06c-1.63,0-2.97.72-4.03,2.16-1.06,1.44-1.59,3.27-1.59,5.49s.51,4.04,1.54,5.46,2.35,2.13,3.95,2.13c1.23,0,2.29-.38,3.18-1.13.88-.75,1.57-1.88,2.07-3.38l8.83,2.53c-1.05,3.64-2.75,6.36-5.09,8.16-2.35,1.8-5.34,2.7-8.98,2.7Z"/>
    <path class="cls-2" d="M191.27,72.28c-4.53,0-8.1-1.47-10.71-4.4-2.61-2.93-3.92-6.96-3.92-12.08,0-3.37.6-6.3,1.79-8.78,1.19-2.48,2.89-4.39,5.08-5.74,2.19-1.35,4.78-2.02,7.76-2.02s5.53.67,7.7,2.02c2.17,1.35,3.85,3.26,5.03,5.73,1.18,2.47,1.77,5.4,1.77,8.8s-.58,6.35-1.74,8.81c-1.16,2.46-2.83,4.35-5,5.68-2.17,1.33-4.76,1.99-7.76,1.99ZM191.27,63.33c1.71,0,3.02-.65,3.94-1.96.92-1.31,1.37-3.16,1.37-5.57s-.47-4.28-1.4-5.6c-.94-1.33-2.24-1.99-3.9-1.99s-2.98.68-3.94,2.04c-.96,1.36-1.44,3.21-1.44,5.56s.48,4.19,1.44,5.53c.96,1.34,2.27,2.01,3.94,2.01Z"/>
    <path class="cls-2" d="M213.86,57.77v-8.83h16.98v8.83h-16.98Z"/>
    <path class="cls-2" d="M106.07,122.28v-43.22h9.75v33.77h20.68v9.45h-30.44Z"/>
    <path class="cls-2" d="M146.14,87.95c-1.44,0-2.69-.53-3.74-1.57-1.05-1.05-1.57-2.29-1.57-3.73s.51-2.64,1.54-3.66,2.28-1.53,3.77-1.53,2.79.5,3.8,1.5c1.01,1,1.51,2.23,1.51,3.69s-.51,2.74-1.54,3.77-2.28,1.54-3.77,1.54ZM141.51,122.28v-31.55h9.26v31.55h-9.26Z"/>
    <path class="cls-2" d="M174.97,123.02c-1.36,0-2.48-.25-3.36-.74s-1.64-1.3-2.25-2.41v2.41h-9.26v-40.44l9.26-4.14v15.31c.68-.99,1.54-1.74,2.58-2.25,1.04-.51,2.24-.77,3.6-.77,2.55,0,4.81.7,6.78,2.11,1.96,1.41,3.51,3.35,4.63,5.83,1.12,2.48,1.68,5.32,1.68,8.53,0,5.19-1.21,9.24-3.63,12.16-2.42,2.92-5.76,4.38-10.02,4.38ZM173.92,114.06c1.73,0,3.07-.66,4.01-1.98s1.42-3.19,1.42-5.62-.47-4.26-1.42-5.57c-.95-1.31-2.28-1.96-4.01-1.96-.99,0-1.88.16-2.67.48-.79.32-1.43.78-1.9,1.37v11.48c.53.64,1.14,1.1,1.81,1.37.67.28,1.59.42,2.76.42Z"/>
    <path class="cls-2" d="M195.56,122.28v-31.55h9.26v2.9c.47-.97,1.32-1.82,2.53-2.55,1.21-.73,2.39-1.1,3.52-1.1,2.45,0,4.51.93,6.17,2.78l-1.23,8.4c-.95-.84-1.85-1.43-2.7-1.77-.85-.34-1.81-.51-2.86-.51-1.17,0-2.16.25-2.96.74s-1.42,1.22-1.84,2.19c-.42.97-.63,2.15-.63,3.55v16.92h-9.26Z"/>
    <path class="cls-2" d="M234.33,123.02c-3.13,0-5.82-.66-8.07-1.98-2.25-1.32-3.98-3.21-5.19-5.68-1.2-2.47-1.81-5.43-1.81-8.89s.61-6.27,1.84-8.74,2.96-4.38,5.22-5.73c2.25-1.35,4.92-2.02,8.01-2.02,2.67,0,5.09.54,7.24,1.62s3.86,2.73,5.12,4.94c1.27,2.21,1.9,5.01,1.9,8.38,0,.58-.01,1.29-.03,2.15s-.09,1.7-.22,2.55h-20.06c0,1.13.25,2.11.74,2.95.49.83,1.19,1.48,2.1,1.93.91.45,1.98.68,3.21.68,1.6,0,2.95-.26,4.03-.77s2.12-1.37,3.13-2.56l5.31,5.31c-1.48,1.79-3.24,3.22-5.28,4.28-2.04,1.06-4.43,1.59-7.19,1.59ZM228.4,102.71h11.36c-.16-1.09-.48-2-.96-2.72-.47-.72-1.1-1.26-1.88-1.62-.78-.36-1.73-.54-2.84-.54-1.5,0-2.77.43-3.8,1.3-1.03.86-1.66,2.06-1.88,3.58Z"/>
  </g>
</svg>