<?xml version="1.0" encoding="UTF-8"?>
<svg id="Layer_1" data-name="Layer 1" xmlns="http://www.w3.org/2000/svg" viewBox="0 0 16 16">
  <defs>
    <style>
      .cls-1 {
        fill: #fd0;
      }

      .cls-1, .cls-2, .cls-3 {
        stroke-width: 0px;
      }

      .cls-2 {
        fill: #034ea2;
      }

      .cls-3 {
        fill: #02ae5a;
      }
    </style>
  </defs>
  <path class="cls-1" d="M4.36,5.51l-3.04-1.75c.63-.99,1.47-1.83,2.46-2.45l1.75,3.04c-.46.31-.86.71-1.18,1.17Z"/>
  <path class="cls-1" d="M3.6,7.66H.09c.05-1.21.37-2.35.91-3.36l3.04,1.75c-.24.49-.39,1.03-.44,1.6Z"/>
  <path class="cls-1" d="M4.02,9.91l-3.04,1.75c-.53-1.01-.85-2.16-.89-3.37h3.51c.04.58.19,1.12.42,1.61Z"/>
  <path class="cls-1" d="M5.51,11.65l-1.75,3.04c-.99-.63-1.84-1.48-2.46-2.47l3.04-1.75c.31.47.71.87,1.18,1.19Z"/>
  <path class="cls-1" d="M7.68,12.4v3.51c-1.21-.05-2.36-.37-3.37-.9l1.75-3.04c.49.24,1.04.39,1.62.43Z"/>
  <path class="cls-1" d="M7.68.09v3.51c-.57.04-1.11.19-1.6.42l-1.75-3.04C5.34.46,6.47.14,7.68.09Z"/>
  <path class="cls-2" d="M15.91,8c0,.1,0,.2,0,.29-.02.43-.07.85-.15,1.25l-1.43.21-.48,1.23-.06.14.82,1.03h0l.07.09c-.49.76-1.1,1.44-1.81,1.99l-1.2-.74-.09.05-.56.3-.65.35-.04,1.36c-.64.2-1.32.32-2.02.34v-3.51c.58-.04,1.12-.19,1.62-.43.19-.09.37-.2.55-.32.46-.32.87-.72,1.18-1.19.12-.18.22-.36.32-.55.24-.49.39-1.04.42-1.61,0-.1.01-.2.01-.29,0-.11,0-.23-.01-.34-.04-.57-.2-1.11-.44-1.6-.09-.19-.2-.37-.32-.55-.31-.46-.71-.86-1.18-1.17-.17-.12-.36-.22-.55-.32-.49-.24-1.03-.38-1.6-.42V.09c.87.03,1.7.21,2.47.5l-.03,1.33.28.17.54.33.43.26,1.2-.65c.57.5,1.07,1.08,1.48,1.72.08.12.15.25.22.37l-.41.47-.52.59.47,1.4,1.4.29c.04.26.06.52.07.79,0,.11,0,.23,0,.34Z"/>
  <path class="cls-3" d="M11.67,7.96c0,1.61-1.04,2.98-2.49,3.47l-.77-2.14c.57-.17.99-.7.99-1.33,0-.77-.62-1.39-1.39-1.39s-1.39.62-1.39,1.39c0,.63.42,1.16.99,1.33l-.77,2.14c-1.45-.49-2.49-1.86-2.49-3.47,0-2.02,1.64-3.66,3.66-3.66s3.66,1.64,3.66,3.66Z"/>
</svg>